<mxfile host="Electron" modified="2024-05-22T07:13:02.478Z" agent="Mozilla/5.0 (Windows NT 10.0; Win64; x64) AppleWebKit/537.36 (KHTML, like Gecko) draw.io/24.2.5 Chrome/120.0.6099.109 Electron/28.1.0 Safari/537.36" etag="YTDb1NgFjAAhKQpR9jmd" version="24.2.5" type="device">
  <diagram name="第 1 页" id="lJStV8RaI5A1z8thdrf8">
    <mxGraphModel dx="2829" dy="1488" grid="1" gridSize="10" guides="1" tooltips="1" connect="1" arrows="1" fold="1" page="1" pageScale="1" pageWidth="827" pageHeight="1169" math="0" shadow="0">
      <root>
        <mxCell id="0" />
        <mxCell id="1" parent="0" />
        <mxCell id="cuw9aL_coSqal3nNZPSL-3" value="" style="edgeStyle=orthogonalEdgeStyle;rounded=0;orthogonalLoop=1;jettySize=auto;html=1;" edge="1" parent="1" source="cuw9aL_coSqal3nNZPSL-1" target="cuw9aL_coSqal3nNZPSL-2">
          <mxGeometry relative="1" as="geometry" />
        </mxCell>
        <mxCell id="cuw9aL_coSqal3nNZPSL-1" value="x&lt;div&gt;[bsz, width, height, 3]&lt;/div&gt;" style="rounded=1;whiteSpace=wrap;html=1;" vertex="1" parent="1">
          <mxGeometry x="350" y="350" width="120" height="60" as="geometry" />
        </mxCell>
        <mxCell id="cuw9aL_coSqal3nNZPSL-5" value="" style="edgeStyle=orthogonalEdgeStyle;rounded=0;orthogonalLoop=1;jettySize=auto;html=1;" edge="1" parent="1" source="cuw9aL_coSqal3nNZPSL-2" target="cuw9aL_coSqal3nNZPSL-4">
          <mxGeometry relative="1" as="geometry" />
        </mxCell>
        <mxCell id="cuw9aL_coSqal3nNZPSL-2" value="Conv2d&lt;div&gt;in_channel=3,&lt;/div&gt;&lt;div&gt;out_channel=width,&lt;/div&gt;&lt;div&gt;kernel_size=patch,&lt;/div&gt;&lt;div&gt;stride=patch&lt;/div&gt;&lt;div&gt;注: 这里的width时超参，不是输入的width&lt;/div&gt;" style="whiteSpace=wrap;html=1;rounded=1;" vertex="1" parent="1">
          <mxGeometry x="265" y="490" width="290" height="100" as="geometry" />
        </mxCell>
        <mxCell id="cuw9aL_coSqal3nNZPSL-8" value="" style="edgeStyle=orthogonalEdgeStyle;rounded=0;orthogonalLoop=1;jettySize=auto;html=1;" edge="1" parent="1" source="cuw9aL_coSqal3nNZPSL-4" target="cuw9aL_coSqal3nNZPSL-7">
          <mxGeometry relative="1" as="geometry" />
        </mxCell>
        <mxCell id="cuw9aL_coSqal3nNZPSL-4" value="reshape" style="whiteSpace=wrap;html=1;rounded=1;" vertex="1" parent="1">
          <mxGeometry x="350" y="690" width="120" height="60" as="geometry" />
        </mxCell>
        <mxCell id="cuw9aL_coSqal3nNZPSL-6" value="[bsz, width, grid, grid]" style="text;html=1;align=center;verticalAlign=middle;whiteSpace=wrap;rounded=0;" vertex="1" parent="1">
          <mxGeometry x="350" y="620" width="260" height="30" as="geometry" />
        </mxCell>
        <mxCell id="cuw9aL_coSqal3nNZPSL-20" style="edgeStyle=orthogonalEdgeStyle;rounded=0;orthogonalLoop=1;jettySize=auto;html=1;exitX=0.5;exitY=1;exitDx=0;exitDy=0;" edge="1" parent="1" source="cuw9aL_coSqal3nNZPSL-7" target="cuw9aL_coSqal3nNZPSL-19">
          <mxGeometry relative="1" as="geometry" />
        </mxCell>
        <mxCell id="cuw9aL_coSqal3nNZPSL-7" value="&lt;div style=&quot;color: rgb(204, 204, 204); background-color: rgb(31, 31, 31); font-family: Consolas, &amp;quot;Courier New&amp;quot;, monospace; font-size: 14px; line-height: 19px; white-space: pre;&quot;&gt;&lt;div style=&quot;line-height: 19px;&quot;&gt;permute(&lt;span style=&quot;color: #b5cea8;&quot;&gt;0&lt;/span&gt;, &lt;span style=&quot;color: #b5cea8;&quot;&gt;2&lt;/span&gt;, &lt;span style=&quot;color: #b5cea8;&quot;&gt;1&lt;/span&gt;)&lt;/div&gt;&lt;/div&gt;" style="whiteSpace=wrap;html=1;rounded=1;" vertex="1" parent="1">
          <mxGeometry x="335" y="820" width="150" height="60" as="geometry" />
        </mxCell>
        <mxCell id="cuw9aL_coSqal3nNZPSL-9" value="[bsz, width, grid**2]" style="text;html=1;align=center;verticalAlign=middle;whiteSpace=wrap;rounded=0;" vertex="1" parent="1">
          <mxGeometry x="360" y="770" width="260" height="30" as="geometry" />
        </mxCell>
        <mxCell id="cuw9aL_coSqal3nNZPSL-12" value="[bsz, grid**2, width]" style="text;html=1;align=center;verticalAlign=middle;whiteSpace=wrap;rounded=0;" vertex="1" parent="1">
          <mxGeometry x="360" y="910" width="260" height="30" as="geometry" />
        </mxCell>
        <mxCell id="cuw9aL_coSqal3nNZPSL-15" style="edgeStyle=orthogonalEdgeStyle;rounded=0;orthogonalLoop=1;jettySize=auto;html=1;exitX=0.5;exitY=1;exitDx=0;exitDy=0;entryX=0;entryY=0.5;entryDx=0;entryDy=0;" edge="1" parent="1" source="cuw9aL_coSqal3nNZPSL-13" target="cuw9aL_coSqal3nNZPSL-14">
          <mxGeometry relative="1" as="geometry" />
        </mxCell>
        <mxCell id="cuw9aL_coSqal3nNZPSL-13" value="&lt;div style=&quot;color: rgb(204, 204, 204); background-color: rgb(31, 31, 31); font-family: Consolas, &amp;quot;Courier New&amp;quot;, monospace; font-size: 14px; line-height: 19px; white-space: pre;&quot;&gt;&lt;span style=&quot;color: #9cdcfe;&quot;&gt;positional_embedding&lt;/span&gt;&lt;/div&gt;" style="rounded=1;whiteSpace=wrap;html=1;" vertex="1" parent="1">
          <mxGeometry x="110" y="820" width="180" height="60" as="geometry" />
        </mxCell>
        <mxCell id="cuw9aL_coSqal3nNZPSL-27" style="edgeStyle=orthogonalEdgeStyle;rounded=0;orthogonalLoop=1;jettySize=auto;html=1;exitX=0.5;exitY=1;exitDx=0;exitDy=0;entryX=0.5;entryY=0;entryDx=0;entryDy=0;" edge="1" parent="1" source="cuw9aL_coSqal3nNZPSL-14" target="cuw9aL_coSqal3nNZPSL-26">
          <mxGeometry relative="1" as="geometry" />
        </mxCell>
        <mxCell id="cuw9aL_coSqal3nNZPSL-14" value="+" style="ellipse;whiteSpace=wrap;html=1;aspect=fixed;" vertex="1" parent="1">
          <mxGeometry x="395" y="1080" width="30" height="30" as="geometry" />
        </mxCell>
        <mxCell id="cuw9aL_coSqal3nNZPSL-21" style="edgeStyle=orthogonalEdgeStyle;rounded=0;orthogonalLoop=1;jettySize=auto;html=1;exitX=0.5;exitY=1;exitDx=0;exitDy=0;entryX=1;entryY=0.5;entryDx=0;entryDy=0;" edge="1" parent="1" source="cuw9aL_coSqal3nNZPSL-18" target="cuw9aL_coSqal3nNZPSL-19">
          <mxGeometry relative="1" as="geometry" />
        </mxCell>
        <mxCell id="cuw9aL_coSqal3nNZPSL-18" value="&lt;div style=&quot;color: rgb(204, 204, 204); background-color: rgb(31, 31, 31); font-family: Consolas, &amp;quot;Courier New&amp;quot;, monospace; font-size: 14px; line-height: 19px; white-space: pre;&quot;&gt;&lt;span style=&quot;color: #9cdcfe;&quot;&gt;class_embedding&lt;/span&gt;&lt;/div&gt;" style="rounded=1;whiteSpace=wrap;html=1;" vertex="1" parent="1">
          <mxGeometry x="560" y="820" width="150" height="60" as="geometry" />
        </mxCell>
        <mxCell id="cuw9aL_coSqal3nNZPSL-22" style="edgeStyle=orthogonalEdgeStyle;rounded=0;orthogonalLoop=1;jettySize=auto;html=1;exitX=0.5;exitY=1;exitDx=0;exitDy=0;entryX=0.5;entryY=0;entryDx=0;entryDy=0;" edge="1" parent="1" source="cuw9aL_coSqal3nNZPSL-19" target="cuw9aL_coSqal3nNZPSL-14">
          <mxGeometry relative="1" as="geometry" />
        </mxCell>
        <mxCell id="cuw9aL_coSqal3nNZPSL-19" value="concat" style="rounded=1;whiteSpace=wrap;html=1;" vertex="1" parent="1">
          <mxGeometry x="350" y="950" width="120" height="60" as="geometry" />
        </mxCell>
        <mxCell id="cuw9aL_coSqal3nNZPSL-23" value="[bsz, grid**2+1, width]" style="text;html=1;align=center;verticalAlign=middle;whiteSpace=wrap;rounded=0;" vertex="1" parent="1">
          <mxGeometry x="414" y="1030" width="160" height="30" as="geometry" />
        </mxCell>
        <mxCell id="cuw9aL_coSqal3nNZPSL-29" value="" style="edgeStyle=orthogonalEdgeStyle;rounded=0;orthogonalLoop=1;jettySize=auto;html=1;" edge="1" parent="1" source="cuw9aL_coSqal3nNZPSL-26" target="cuw9aL_coSqal3nNZPSL-28">
          <mxGeometry relative="1" as="geometry" />
        </mxCell>
        <mxCell id="cuw9aL_coSqal3nNZPSL-26" value="&lt;div style=&quot;color: rgb(204, 204, 204); background-color: rgb(31, 31, 31); font-family: Consolas, &amp;quot;Courier New&amp;quot;, monospace; font-size: 14px; line-height: 19px; white-space: pre;&quot;&gt;&lt;span style=&quot;color: #9cdcfe;&quot;&gt;patch_dropout&lt;/span&gt;&lt;/div&gt;" style="rounded=1;whiteSpace=wrap;html=1;" vertex="1" parent="1">
          <mxGeometry x="350" y="1169" width="120" height="60" as="geometry" />
        </mxCell>
        <mxCell id="cuw9aL_coSqal3nNZPSL-33" value="" style="edgeStyle=orthogonalEdgeStyle;rounded=0;orthogonalLoop=1;jettySize=auto;html=1;" edge="1" parent="1" source="cuw9aL_coSqal3nNZPSL-28" target="cuw9aL_coSqal3nNZPSL-32">
          <mxGeometry relative="1" as="geometry" />
        </mxCell>
        <mxCell id="cuw9aL_coSqal3nNZPSL-28" value="&lt;div style=&quot;color: #cccccc;background-color: #1f1f1f;font-family: Consolas, &#39;Courier New&#39;, monospace;font-weight: normal;font-size: 14px;line-height: 19px;white-space: pre;&quot;&gt;&lt;div&gt;&lt;span style=&quot;color: #9cdcfe;&quot;&gt;ln_pre&lt;/span&gt;&lt;/div&gt;&lt;/div&gt;" style="whiteSpace=wrap;html=1;rounded=1;" vertex="1" parent="1">
          <mxGeometry x="350" y="1309" width="120" height="60" as="geometry" />
        </mxCell>
        <mxCell id="cuw9aL_coSqal3nNZPSL-31" value="[bsz,&amp;nbsp;&lt;span style=&quot;color: rgb(156, 220, 254); background-color: rgb(31, 31, 31); font-family: Consolas, &amp;quot;Courier New&amp;quot;, monospace; font-size: 14px; white-space: pre;&quot;&gt;num_patches_keep&lt;/span&gt;&lt;span style=&quot;background-color: initial;&quot;&gt;, width]&lt;/span&gt;" style="text;html=1;align=center;verticalAlign=middle;whiteSpace=wrap;rounded=0;" vertex="1" parent="1">
          <mxGeometry x="425" y="1250" width="205" height="30" as="geometry" />
        </mxCell>
        <mxCell id="cuw9aL_coSqal3nNZPSL-35" value="" style="edgeStyle=orthogonalEdgeStyle;rounded=0;orthogonalLoop=1;jettySize=auto;html=1;" edge="1" parent="1" source="cuw9aL_coSqal3nNZPSL-32" target="cuw9aL_coSqal3nNZPSL-34">
          <mxGeometry relative="1" as="geometry" />
        </mxCell>
        <mxCell id="cuw9aL_coSqal3nNZPSL-32" value="&lt;div style=&quot;color: rgb(204, 204, 204); background-color: rgb(31, 31, 31); font-family: Consolas, &amp;quot;Courier New&amp;quot;, monospace; font-size: 14px; line-height: 19px; white-space: pre;&quot;&gt;permute&lt;/div&gt;" style="whiteSpace=wrap;html=1;rounded=1;" vertex="1" parent="1">
          <mxGeometry x="350" y="1449" width="120" height="60" as="geometry" />
        </mxCell>
        <mxCell id="cuw9aL_coSqal3nNZPSL-38" value="" style="edgeStyle=orthogonalEdgeStyle;rounded=0;orthogonalLoop=1;jettySize=auto;html=1;dashed=1;" edge="1" parent="1" source="cuw9aL_coSqal3nNZPSL-34" target="cuw9aL_coSqal3nNZPSL-37">
          <mxGeometry relative="1" as="geometry" />
        </mxCell>
        <mxCell id="cuw9aL_coSqal3nNZPSL-40" value="" style="edgeStyle=orthogonalEdgeStyle;rounded=0;orthogonalLoop=1;jettySize=auto;html=1;" edge="1" parent="1" source="cuw9aL_coSqal3nNZPSL-34" target="cuw9aL_coSqal3nNZPSL-39">
          <mxGeometry relative="1" as="geometry" />
        </mxCell>
        <mxCell id="cuw9aL_coSqal3nNZPSL-34" value="Transformer" style="whiteSpace=wrap;html=1;rounded=1;" vertex="1" parent="1">
          <mxGeometry x="350" y="1589" width="120" height="60" as="geometry" />
        </mxCell>
        <mxCell id="cuw9aL_coSqal3nNZPSL-36" value="[&amp;nbsp;&lt;span style=&quot;color: rgb(156, 220, 254); background-color: rgb(31, 31, 31); font-family: Consolas, &amp;quot;Courier New&amp;quot;, monospace; font-size: 14px; white-space: pre;&quot;&gt;num_patches_keep&lt;/span&gt;&lt;span style=&quot;background-color: initial;&quot;&gt;,&amp;nbsp;&lt;/span&gt;bsz,&lt;span style=&quot;background-color: initial;&quot;&gt;width]&lt;/span&gt;" style="text;html=1;align=center;verticalAlign=middle;whiteSpace=wrap;rounded=0;" vertex="1" parent="1">
          <mxGeometry x="415" y="1530" width="205" height="30" as="geometry" />
        </mxCell>
        <mxCell id="cuw9aL_coSqal3nNZPSL-37" value="&lt;div style=&quot;color: #cccccc;background-color: #1f1f1f;font-family: Consolas, &#39;Courier New&#39;, monospace;font-weight: normal;font-size: 14px;line-height: 19px;white-space: pre;&quot;&gt;&lt;div&gt;&lt;span style=&quot;color: #4ec9b0;&quot;&gt;ResidualAttentionBlock&lt;/span&gt;&lt;/div&gt;&lt;div&gt;&lt;span style=&quot;color: #4ec9b0;&quot;&gt;就是一般的attention + residual&lt;/span&gt;&lt;/div&gt;&lt;div&gt;&lt;span style=&quot;color: #4ec9b0;&quot;&gt;同时没有attention_mask&lt;/span&gt;&lt;/div&gt;&lt;div&gt;&lt;span style=&quot;color: #4ec9b0;&quot;&gt;没有casual_mask&lt;/span&gt;&lt;/div&gt;&lt;/div&gt;" style="whiteSpace=wrap;html=1;rounded=1;" vertex="1" parent="1">
          <mxGeometry x="10" y="1569.5" width="260" height="99" as="geometry" />
        </mxCell>
        <mxCell id="cuw9aL_coSqal3nNZPSL-42" value="" style="edgeStyle=orthogonalEdgeStyle;rounded=0;orthogonalLoop=1;jettySize=auto;html=1;" edge="1" parent="1" source="cuw9aL_coSqal3nNZPSL-39" target="cuw9aL_coSqal3nNZPSL-41">
          <mxGeometry relative="1" as="geometry" />
        </mxCell>
        <mxCell id="cuw9aL_coSqal3nNZPSL-39" value="permute" style="whiteSpace=wrap;html=1;rounded=1;" vertex="1" parent="1">
          <mxGeometry x="350" y="1729" width="120" height="60" as="geometry" />
        </mxCell>
        <mxCell id="cuw9aL_coSqal3nNZPSL-63" value="" style="edgeStyle=orthogonalEdgeStyle;rounded=0;orthogonalLoop=1;jettySize=auto;html=1;" edge="1" parent="1" source="cuw9aL_coSqal3nNZPSL-41" target="cuw9aL_coSqal3nNZPSL-62">
          <mxGeometry relative="1" as="geometry" />
        </mxCell>
        <mxCell id="cuw9aL_coSqal3nNZPSL-41" value="attn_pool" style="whiteSpace=wrap;html=1;rounded=1;" vertex="1" parent="1">
          <mxGeometry x="350" y="1869" width="120" height="60" as="geometry" />
        </mxCell>
        <mxCell id="cuw9aL_coSqal3nNZPSL-46" value="[bsz,&amp;nbsp;&lt;span style=&quot;color: rgb(156, 220, 254); background-color: rgb(31, 31, 31); font-family: Consolas, &amp;quot;Courier New&amp;quot;, monospace; font-size: 14px; white-space: pre;&quot;&gt;num_patches_keep&lt;/span&gt;&lt;span style=&quot;background-color: initial;&quot;&gt;, width]&lt;/span&gt;" style="text;html=1;align=center;verticalAlign=middle;whiteSpace=wrap;rounded=0;" vertex="1" parent="1">
          <mxGeometry x="425" y="1810" width="205" height="30" as="geometry" />
        </mxCell>
        <mxCell id="cuw9aL_coSqal3nNZPSL-47" value="" style="endArrow=none;html=1;rounded=0;exitX=0;exitY=0;exitDx=0;exitDy=0;" edge="1" parent="1" source="cuw9aL_coSqal3nNZPSL-41">
          <mxGeometry width="50" height="50" relative="1" as="geometry">
            <mxPoint x="240" y="1650" as="sourcePoint" />
            <mxPoint x="200" y="1740" as="targetPoint" />
          </mxGeometry>
        </mxCell>
        <mxCell id="cuw9aL_coSqal3nNZPSL-48" value="" style="endArrow=none;html=1;rounded=0;exitX=0;exitY=1;exitDx=0;exitDy=0;" edge="1" parent="1" source="cuw9aL_coSqal3nNZPSL-41">
          <mxGeometry width="50" height="50" relative="1" as="geometry">
            <mxPoint x="350" y="1930" as="sourcePoint" />
            <mxPoint x="200" y="2030" as="targetPoint" />
          </mxGeometry>
        </mxCell>
        <mxCell id="cuw9aL_coSqal3nNZPSL-51" value="" style="edgeStyle=orthogonalEdgeStyle;rounded=0;orthogonalLoop=1;jettySize=auto;html=1;" edge="1" parent="1" source="cuw9aL_coSqal3nNZPSL-49" target="cuw9aL_coSqal3nNZPSL-50">
          <mxGeometry relative="1" as="geometry" />
        </mxCell>
        <mxCell id="cuw9aL_coSqal3nNZPSL-49" value="permute" style="rounded=1;whiteSpace=wrap;html=1;" vertex="1" parent="1">
          <mxGeometry x="60" y="1729" width="120" height="60" as="geometry" />
        </mxCell>
        <mxCell id="cuw9aL_coSqal3nNZPSL-60" value="" style="edgeStyle=orthogonalEdgeStyle;rounded=0;orthogonalLoop=1;jettySize=auto;html=1;" edge="1" parent="1" source="cuw9aL_coSqal3nNZPSL-50" target="cuw9aL_coSqal3nNZPSL-59">
          <mxGeometry relative="1" as="geometry" />
        </mxCell>
        <mxCell id="cuw9aL_coSqal3nNZPSL-50" value="cross_attn" style="whiteSpace=wrap;html=1;rounded=1;" vertex="1" parent="1">
          <mxGeometry x="60" y="1869" width="120" height="60" as="geometry" />
        </mxCell>
        <mxCell id="cuw9aL_coSqal3nNZPSL-52" value="[&amp;nbsp;&lt;span style=&quot;color: rgb(156, 220, 254); background-color: rgb(31, 31, 31); font-family: Consolas, &amp;quot;Courier New&amp;quot;, monospace; font-size: 14px; white-space: pre;&quot;&gt;num_patches_keep&lt;/span&gt;&lt;span style=&quot;background-color: initial;&quot;&gt;,&amp;nbsp;&lt;/span&gt;bsz,&lt;span style=&quot;background-color: initial;&quot;&gt;width]&lt;/span&gt;" style="text;html=1;align=center;verticalAlign=middle;whiteSpace=wrap;rounded=0;" vertex="1" parent="1">
          <mxGeometry x="-90" y="1810" width="205" height="30" as="geometry" />
        </mxCell>
        <mxCell id="cuw9aL_coSqal3nNZPSL-57" style="edgeStyle=orthogonalEdgeStyle;rounded=0;orthogonalLoop=1;jettySize=auto;html=1;exitX=0.5;exitY=1;exitDx=0;exitDy=0;entryX=0;entryY=0.5;entryDx=0;entryDy=0;" edge="1" parent="1" source="cuw9aL_coSqal3nNZPSL-53" target="cuw9aL_coSqal3nNZPSL-56">
          <mxGeometry relative="1" as="geometry" />
        </mxCell>
        <mxCell id="cuw9aL_coSqal3nNZPSL-53" value="query" style="rounded=1;whiteSpace=wrap;html=1;" vertex="1" parent="1">
          <mxGeometry x="-260" y="1754" width="120" height="60" as="geometry" />
        </mxCell>
        <mxCell id="cuw9aL_coSqal3nNZPSL-55" value="&lt;div style=&quot;color: rgb(204, 204, 204); background-color: rgb(31, 31, 31); font-family: Consolas, &amp;quot;Courier New&amp;quot;, monospace; font-size: 14px; line-height: 19px; white-space: pre;&quot;&gt;&lt;span style=&quot;color: #9cdcfe;&quot;&gt;[n_queries&lt;/span&gt;, &lt;span style=&quot;color: #9cdcfe;&quot;&gt;d_model]&lt;/span&gt;&lt;/div&gt;" style="text;html=1;align=center;verticalAlign=middle;whiteSpace=wrap;rounded=0;" vertex="1" parent="1">
          <mxGeometry x="-370" y="1850" width="170" height="30" as="geometry" />
        </mxCell>
        <mxCell id="cuw9aL_coSqal3nNZPSL-58" style="edgeStyle=orthogonalEdgeStyle;rounded=0;orthogonalLoop=1;jettySize=auto;html=1;exitX=1;exitY=0.5;exitDx=0;exitDy=0;entryX=0;entryY=0.5;entryDx=0;entryDy=0;" edge="1" parent="1" source="cuw9aL_coSqal3nNZPSL-56" target="cuw9aL_coSqal3nNZPSL-50">
          <mxGeometry relative="1" as="geometry" />
        </mxCell>
        <mxCell id="cuw9aL_coSqal3nNZPSL-56" value="ln_q" style="rounded=1;whiteSpace=wrap;html=1;" vertex="1" parent="1">
          <mxGeometry x="-150" y="1869" width="120" height="60" as="geometry" />
        </mxCell>
        <mxCell id="cuw9aL_coSqal3nNZPSL-59" value="permute" style="whiteSpace=wrap;html=1;rounded=1;" vertex="1" parent="1">
          <mxGeometry x="60" y="2009" width="120" height="60" as="geometry" />
        </mxCell>
        <mxCell id="cuw9aL_coSqal3nNZPSL-61" value="[ &lt;font face=&quot;Consolas, Courier New, monospace&quot; color=&quot;#9cdcfe&quot;&gt;&lt;span style=&quot;font-size: 14px; white-space: pre; background-color: rgb(31, 31, 31);&quot;&gt;num_queries,&lt;/span&gt;&lt;/font&gt;&lt;span style=&quot;background-color: initial;&quot;&gt;&amp;nbsp;&lt;/span&gt;bsz,&lt;span style=&quot;background-color: initial;&quot;&gt;width]&lt;/span&gt;" style="text;html=1;align=center;verticalAlign=middle;whiteSpace=wrap;rounded=0;" vertex="1" parent="1">
          <mxGeometry x="-90" y="1950" width="205" height="30" as="geometry" />
        </mxCell>
        <mxCell id="cuw9aL_coSqal3nNZPSL-66" value="" style="edgeStyle=orthogonalEdgeStyle;rounded=0;orthogonalLoop=1;jettySize=auto;html=1;" edge="1" parent="1" source="cuw9aL_coSqal3nNZPSL-62" target="cuw9aL_coSqal3nNZPSL-65">
          <mxGeometry relative="1" as="geometry" />
        </mxCell>
        <mxCell id="cuw9aL_coSqal3nNZPSL-62" value="ln_post" style="whiteSpace=wrap;html=1;rounded=1;" vertex="1" parent="1">
          <mxGeometry x="350" y="2009" width="120" height="60" as="geometry" />
        </mxCell>
        <mxCell id="cuw9aL_coSqal3nNZPSL-64" value="[ bsz,&amp;nbsp;&lt;font face=&quot;Consolas, Courier New, monospace&quot; color=&quot;#9cdcfe&quot;&gt;&lt;span style=&quot;font-size: 14px; white-space: pre; background-color: rgb(31, 31, 31);&quot;&gt;num_queries&lt;/span&gt;&lt;/font&gt;,&lt;span style=&quot;background-color: initial;&quot;&gt;width]&lt;/span&gt;" style="text;html=1;align=center;verticalAlign=middle;whiteSpace=wrap;rounded=0;" vertex="1" parent="1">
          <mxGeometry x="415" y="1950" width="205" height="30" as="geometry" />
        </mxCell>
        <mxCell id="cuw9aL_coSqal3nNZPSL-68" value="" style="edgeStyle=orthogonalEdgeStyle;rounded=0;orthogonalLoop=1;jettySize=auto;html=1;" edge="1" parent="1" source="cuw9aL_coSqal3nNZPSL-65" target="cuw9aL_coSqal3nNZPSL-67">
          <mxGeometry relative="1" as="geometry" />
        </mxCell>
        <mxCell id="cuw9aL_coSqal3nNZPSL-65" value="global_pool" style="whiteSpace=wrap;html=1;rounded=1;" vertex="1" parent="1">
          <mxGeometry x="350" y="2149" width="120" height="60" as="geometry" />
        </mxCell>
        <mxCell id="cuw9aL_coSqal3nNZPSL-70" style="edgeStyle=orthogonalEdgeStyle;rounded=0;orthogonalLoop=1;jettySize=auto;html=1;exitX=0.5;exitY=1;exitDx=0;exitDy=0;" edge="1" parent="1" source="cuw9aL_coSqal3nNZPSL-67">
          <mxGeometry relative="1" as="geometry">
            <mxPoint x="409.5" y="2400" as="targetPoint" />
          </mxGeometry>
        </mxCell>
        <mxCell id="cuw9aL_coSqal3nNZPSL-67" value="&lt;div style=&quot;color: rgb(204, 204, 204); background-color: rgb(31, 31, 31); font-family: Consolas, &amp;quot;Courier New&amp;quot;, monospace; font-size: 14px; line-height: 19px; white-space: pre;&quot;&gt;&lt;span style=&quot;color: #9cdcfe;&quot;&gt;pooled&lt;/span&gt; &lt;span style=&quot;color: #d4d4d4;&quot;&gt;@&lt;/span&gt; &lt;span style=&quot;color: #9cdcfe;&quot;&gt;self&lt;/span&gt;.&lt;span style=&quot;color: #9cdcfe;&quot;&gt;proj&lt;/span&gt;&lt;/div&gt;" style="whiteSpace=wrap;html=1;rounded=1;" vertex="1" parent="1">
          <mxGeometry x="310" y="2270" width="200" height="60" as="geometry" />
        </mxCell>
        <mxCell id="cuw9aL_coSqal3nNZPSL-69" value="[ bsz,&amp;nbsp;&lt;font face=&quot;Consolas, Courier New, monospace&quot; color=&quot;#9cdcfe&quot;&gt;&lt;span style=&quot;font-size: 14px; white-space: pre; background-color: rgb(31, 31, 31);&quot;&gt;1&lt;/span&gt;&lt;/font&gt;,&lt;span style=&quot;background-color: initial;&quot;&gt;width]&lt;/span&gt;" style="text;html=1;align=center;verticalAlign=middle;whiteSpace=wrap;rounded=0;" vertex="1" parent="1">
          <mxGeometry x="369" y="2220" width="205" height="30" as="geometry" />
        </mxCell>
        <mxCell id="cuw9aL_coSqal3nNZPSL-71" value="[ bsz,&amp;nbsp;&lt;font face=&quot;Consolas, Courier New, monospace&quot; color=&quot;#9cdcfe&quot;&gt;&lt;span style=&quot;font-size: 14px; white-space: pre; background-color: rgb(31, 31, 31);&quot;&gt;1&lt;/span&gt;&lt;/font&gt;,out_dim&lt;span style=&quot;background-color: initial;&quot;&gt;]&lt;/span&gt;" style="text;html=1;align=center;verticalAlign=middle;whiteSpace=wrap;rounded=0;" vertex="1" parent="1">
          <mxGeometry x="369" y="2350" width="205" height="30" as="geometry" />
        </mxCell>
      </root>
    </mxGraphModel>
  </diagram>
</mxfile>
